<svg version="1.1" id="Layer_1" xmlns="http://www.w3.org/2000/svg" xmlns:xlink="http://www.w3.org/1999/xlink" x="0px" y="0px"
	 width="100%" viewBox="0 0 5180 1405" enable-background="new 0 0 5180 1405" xml:space="preserve">
<path fill="#FFFFFF" opacity="1.000000" stroke="none" 
	d="
M3338.000000,1408.000000 
	C2225.333496,1408.000000 1113.666992,1408.000000 2.000299,1408.000000 
	C2.000199,939.333496 2.000199,470.667053 2.000099,2.000424 
	C1728.666382,2.000283 3455.332764,2.000283 5181.999023,2.000141 
	C5181.999512,470.666229 5181.999512,939.332458 5182.000000,1407.999268 
	C4567.666504,1408.000000 3953.333252,1408.000000 3338.000000,1408.000000 
M4378.269531,625.554138 
	C4386.028809,663.650574 4393.788574,701.747070 4401.504883,739.633362 
	C4412.876465,739.633362 4423.416016,739.633362 4434.370605,739.633362 
	C4449.539551,685.707825 4464.611816,632.123596 4479.820312,578.056274 
	C4467.717285,578.056274 4456.834961,578.056274 4445.294922,578.056274 
	C4436.545898,616.527222 4427.861328,654.713074 4418.683105,695.069885 
	C4410.249023,654.535339 4402.276855,616.222656 4394.335938,578.062134 
	C4381.671387,578.062134 4370.091797,578.062134 4358.169434,578.062134 
	C4350.784180,616.200317 4343.471680,653.963318 4336.159180,691.726318 
	C4335.656738,691.691345 4335.154297,691.656311 4334.651855,691.621338 
	C4326.233398,653.811829 4317.815430,616.002258 4309.385742,578.141357 
	C4297.139648,578.141357 4285.635742,578.141357 4273.219238,578.141357 
	C4288.605957,632.520813 4303.781738,686.156921 4318.910156,739.624390 
	C4329.967285,739.624390 4340.175293,739.624390 4350.838867,739.624390 
	C4353.951172,724.292908 4356.940918,709.329346 4360.034180,694.386902 
	C4364.755859,671.579285 4369.548340,648.786133 4375.203613,625.583313 
	C4376.036133,625.069641 4376.868164,624.555908 4378.269531,625.554138 
M857.678345,1230.973022 
	C857.678345,1072.529663 857.678345,914.086426 857.678345,755.643127 
	C858.273438,755.485352 858.868469,755.327637 859.463562,755.169861 
	C948.478760,857.711731 1037.494019,960.253601 1126.537476,1062.828125 
	C1129.670288,1061.418579 1132.076416,1060.350342 1134.470947,1059.256592 
	C1173.468384,1041.446167 1212.474121,1041.426025 1251.176270,1059.870850 
	C1283.234497,1075.149414 1306.626587,1099.845459 1324.305176,1130.102417 
	C1344.338501,1164.389648 1354.369141,1201.684692 1356.034668,1241.286743 
	C1356.253906,1246.496948 1356.340698,1251.712769 1356.483032,1256.721313 
	C1375.155029,1258.801514 1659.841553,1257.994995 1667.173462,1255.775269 
	C1483.148804,1047.722534 1299.311401,839.881775 1115.375366,631.929199 
	C1274.147095,445.023010 1432.277100,258.872498 1590.398315,72.714478 
	C1590.814453,72.224548 1591.138306,71.643852 1591.432617,71.068428 
	C1591.570435,70.799049 1591.633423,70.412628 1591.551636,70.131180 
	C1591.465332,69.834526 1591.165894,69.599838 1590.557861,68.828735 
	C1587.358521,68.828735 1583.752197,68.828743 1580.145996,68.828728 
	C1480.486084,68.828300 1380.826050,68.827904 1281.166138,68.827431 
	C1265.122925,68.827354 1265.179443,68.874649 1254.642212,81.421776 
	C1124.343628,236.574432 994.027649,391.712616 863.709045,546.848511 
	C862.308716,548.515564 860.813354,550.102783 857.894165,553.371033 
	C857.894165,390.850708 857.894165,230.452744 857.894165,70.252235 
	C846.625916,67.906296 593.689270,68.387672 586.116821,70.817390 
	C586.116821,89.073158 586.116821,107.584427 586.116821,126.814072 
	C583.043091,125.844162 580.882141,125.155174 578.716797,124.480232 
	C567.292725,120.919319 555.966553,116.997063 544.425537,113.866966 
	C496.474457,100.861931 447.420807,96.900879 397.964722,96.857376 
	C285.972382,96.758865 173.979874,96.822906 61.987423,96.820854 
	C58.737217,96.820793 55.487011,96.820839 52.111229,96.820839 
	C52.111229,474.352844 52.111229,850.818298 52.111229,1227.957397 
	C54.616882,1227.957397 56.553566,1227.957886 58.490250,1227.957275 
	C204.480209,1227.913452 350.470367,1227.973633 496.459808,1227.680054 
	C512.742676,1227.647339 529.051208,1225.921265 545.292786,1224.395264 
	C558.768677,1223.129150 572.163452,1221.000610 586.818970,1219.094849 
	C586.818970,1232.097656 586.818970,1244.569458 586.818970,1256.866455 
	C609.454956,1258.981934 850.297119,1258.041992 857.678345,1255.810547 
	C857.678345,1248.271729 857.678345,1240.615967 857.678345,1230.973022 
M1134.400391,1189.470825 
	C1115.586426,1215.680054 1111.619751,1244.948120 1117.135254,1275.926636 
	C1120.409668,1294.317383 1128.173828,1310.729370 1141.592163,1324.043945 
	C1163.058472,1345.344604 1193.185547,1345.439575 1214.466064,1323.938354 
	C1219.774048,1318.575317 1224.464233,1312.268433 1228.125610,1305.667236 
	C1241.595215,1281.382202 1244.280273,1255.389038 1238.751343,1228.397583 
	C1235.070435,1210.427368 1227.735352,1194.267090 1214.403198,1181.311646 
	C1193.012329,1160.525391 1163.557007,1160.440186 1142.046753,1181.024048 
	C1139.651733,1183.315918 1137.553345,1185.917847 1134.400391,1189.470825 
M1765.005371,577.614014 
	C1754.822266,577.614014 1744.639282,577.614014 1734.270264,577.614014 
	C1734.270264,632.290833 1734.270264,685.730591 1734.270264,739.793396 
	C1736.190552,739.910522 1737.769775,740.091248 1739.349121,740.090454 
	C1763.312866,740.078918 1787.278320,740.189392 1811.239380,739.919067 
	C1817.853149,739.844421 1824.542358,739.079529 1831.043823,737.833252 
	C1849.493652,734.296814 1864.726196,718.785156 1867.502319,699.993103 
	C1870.265137,681.291260 1865.547485,662.992920 1846.320190,653.663818 
	C1845.930420,653.474792 1845.801758,652.747986 1845.875488,652.888123 
	C1850.430664,647.731689 1855.852051,643.434998 1858.876709,637.842163 
	C1870.002075,617.269958 1860.170044,590.580383 1838.239746,582.133484 
	C1830.973022,579.334534 1822.765381,578.165283 1814.922852,577.845032 
	C1798.973022,577.193604 1782.978638,577.627441 1765.005371,577.614014 
M4156.466309,668.980652 
	C4156.466309,692.532471 4156.466309,716.084290 4156.466309,739.433228 
	C4168.712402,739.433228 4179.494629,739.433228 4190.191406,739.433228 
	C4190.191406,685.245361 4190.191406,631.742126 4190.191406,577.515076 
	C4178.863281,578.012573 4168.056152,576.743896 4156.358887,578.507935 
	C4156.358887,598.953552 4156.358887,618.788330 4156.358887,638.436890 
	C4134.932617,638.436890 4114.505371,638.436890 4093.195312,638.436890 
	C4093.195312,617.870117 4093.195312,598.021484 4093.195312,578.296875 
	C4081.500732,578.296875 4070.724854,578.296875 4059.944824,578.296875 
	C4059.944824,632.526611 4059.944824,686.058350 4059.944824,739.471924 
	C4071.239746,739.471924 4082.062012,739.471924 4093.613770,739.471924 
	C4093.613770,715.322510 4093.613770,691.803955 4093.613770,667.588806 
	C4114.580566,667.588806 4134.798828,667.588806 4156.466309,668.980652 
M3906.960693,744.317139 
	C3914.551758,743.517517 3922.361328,743.595215 3929.695557,741.765564 
	C3960.634521,734.047546 3975.976562,712.271667 3970.472900,681.252686 
	C3968.423096,669.699951 3962.116211,660.891479 3951.577881,655.814697 
	C3944.749268,652.524841 3937.479736,649.936890 3930.164307,647.914490 
	C3914.793457,643.665344 3899.227783,640.123474 3883.811768,636.029785 
	C3877.088623,634.244507 3872.997314,629.637573 3872.237305,622.562378 
	C3871.486816,615.577942 3874.353760,610.046448 3880.214355,606.503723 
	C3891.550537,599.651062 3903.753906,600.407532 3915.962646,603.526245 
	C3926.563721,606.234436 3931.608398,614.049561 3933.948975,624.126526 
	C3934.073486,624.661255 3934.743652,625.069275 3934.917236,625.263916 
	C3945.374756,625.263916 3955.581299,625.263916 3965.748779,625.263916 
	C3966.089844,602.385925 3950.391113,582.368225 3927.223145,576.189880 
	C3912.191650,572.181396 3896.876465,572.225586 3881.705566,575.336365 
	C3875.922852,576.522095 3870.042480,578.422913 3864.882568,581.237549 
	C3846.544922,591.240540 3839.236816,607.507874 3840.400635,627.822632 
	C3841.500244,647.019958 3851.847168,659.349731 3870.009521,664.849915 
	C3881.755127,668.406860 3893.791260,670.993225 3905.639160,674.226990 
	C3913.631104,676.408386 3921.706055,678.482178 3929.416260,681.453674 
	C3942.354980,686.440308 3940.668701,703.591980 3932.271484,709.361572 
	C3929.316406,711.391785 3925.919189,713.428406 3922.486084,713.978394 
	C3914.989258,715.179443 3907.318604,716.145996 3899.757324,715.921692 
	C3882.885498,715.421265 3874.698242,708.314636 3870.312012,691.759705 
	C3870.162842,691.197937 3869.537354,690.762573 3869.329346,690.507935 
	C3858.886230,690.507935 3848.657959,690.507935 3838.491699,690.507935 
	C3836.621338,710.245300 3849.580566,732.501465 3873.624512,739.547241 
	C3883.694580,742.498230 3894.538818,742.805786 3906.960693,744.317139 
M2837.667969,592.805786 
	C2827.541748,605.080078 2826.013184,619.429504 2828.356689,634.360596 
	C2830.152344,645.798828 2836.041504,655.022095 2846.769775,660.153137 
	C2853.329102,663.290222 2860.180908,666.028198 2867.166504,668.012695 
	C2878.034424,671.100159 2889.161377,673.261597 2900.110840,676.079712 
	C2905.565186,677.483643 2911.128662,678.922363 2916.187988,681.309509 
	C2928.153564,686.955444 2929.429443,701.908264 2918.749512,709.763977 
	C2916.132080,711.689331 2912.957520,713.389771 2909.815430,713.958496 
	C2903.310547,715.135986 2896.669189,715.805420 2890.058594,716.092590 
	C2881.541016,716.462646 2873.527344,714.452332 2866.578857,709.190918 
	C2860.394775,704.508240 2858.010010,697.771484 2857.335693,689.990051 
	C2851.288086,689.990051 2845.983398,689.990051 2840.678467,689.990051 
	C2835.513916,689.990051 2830.349121,689.990051 2825.300781,689.990051 
	C2824.269287,711.286438 2836.902588,731.431091 2858.411133,738.831238 
	C2879.468994,746.076355 2900.931396,746.855225 2922.198975,740.112183 
	C2948.664062,731.721252 2960.783203,712.825012 2958.127930,685.261047 
	C2956.896729,672.480591 2950.983887,662.281616 2939.487305,656.314941 
	C2932.763672,652.825317 2925.469482,650.172424 2918.155518,648.136963 
	C2902.780518,643.858093 2887.208984,640.289307 2871.746826,636.317505 
	C2864.624268,634.487976 2860.064209,630.196533 2859.429443,622.478577 
	C2858.781006,614.596252 2862.063232,608.841248 2869.080322,605.437744 
	C2880.831055,599.738342 2893.012939,600.262146 2905.035889,604.184082 
	C2914.907959,607.404358 2919.277588,615.492310 2920.920654,625.288391 
	C2931.922607,625.288391 2942.448242,625.288391 2952.982422,625.288391 
	C2952.145752,601.281433 2937.168213,582.242920 2914.233398,576.207825 
	C2899.191895,572.249756 2883.916748,572.408325 2868.661133,575.249207 
	C2856.847168,577.449158 2846.625000,582.586182 2837.667969,592.805786 
M4899.007812,577.605713 
	C4893.501465,577.605713 4887.995117,577.605713 4881.741211,577.605713 
	C4881.741211,598.924316 4881.741211,618.797119 4881.741211,638.603882 
	C4860.391602,638.603882 4839.852051,638.603882 4818.421387,638.603882 
	C4818.421387,628.129272 4818.429688,618.193542 4818.419922,608.257874 
	C4818.409668,598.090881 4818.381348,587.923889 4818.362305,578.148438 
	C4806.346191,578.148438 4795.800293,578.148438 4784.843750,578.148438 
	C4784.843750,632.176514 4784.843750,685.657593 4784.843750,739.625732 
	C4796.053711,739.625732 4806.854004,739.625732 4818.697266,739.625732 
	C4818.697266,715.483337 4818.697266,691.706665 4818.697266,667.927002 
	C4840.252930,667.927002 4860.763672,667.927002 4882.335938,667.927002 
	C4882.335938,692.222656 4882.335938,715.996338 4882.335938,739.377258 
	C4894.231934,739.377258 4905.044922,739.377258 4915.454102,739.377258 
	C4915.454102,685.142273 4915.454102,631.643005 4915.454102,577.605896 
	C4910.217773,577.605896 4905.592773,577.605896 4899.007812,577.605713 
M1989.903931,593.121094 
	C1989.903931,588.215698 1989.903931,583.310303 1989.903931,578.186951 
	C1978.108887,578.186951 1967.330933,578.186951 1956.285889,578.186951 
	C1956.285889,632.243835 1956.285889,685.717468 1956.285889,739.635986 
	C1967.489746,739.635986 1978.282227,739.635986 1990.109619,739.635986 
	C1990.109619,715.397827 1990.109619,691.613770 1990.109619,667.977539 
	C2011.655762,667.977539 2032.160645,667.977539 2053.767090,667.977539 
	C2053.767090,692.288147 2053.767090,716.028687 2053.767090,740.042114 
	C2065.668213,740.101379 2076.444580,740.214722 2086.817871,740.010071 
	C2086.817871,685.050171 2086.817871,631.592590 2086.817871,578.345947 
	C2075.312744,578.345947 2064.511475,578.345947 2053.500244,578.345947 
	C2053.500244,589.072998 2053.572510,599.059265 2053.479736,609.044067 
	C2053.388184,618.866577 2053.898193,628.728577 2053.124512,638.535156 
	C2031.479004,638.535156 2011.030762,638.535156 1989.903931,638.535156 
	C1989.903931,623.637329 1989.903931,609.362671 1989.903931,593.121094 
M3143.730957,712.987793 
	C3143.730957,721.854309 3143.730957,730.720825 3143.730957,739.447449 
	C3155.664062,739.447449 3166.447754,739.447449 3177.168457,739.447449 
	C3177.168457,685.294006 3177.168457,631.806396 3177.168457,578.242004 
	C3165.812256,578.242004 3155.026367,578.242004 3143.430420,578.242004 
	C3143.430420,598.728088 3143.430420,618.590942 3143.430420,638.701172 
	C3122.072998,638.701172 3101.539307,638.701172 3079.824219,638.701172 
	C3079.824219,618.132080 3079.824219,598.007690 3079.824219,578.075195 
	C3068.073486,578.075195 3057.513672,578.075195 3046.718750,578.075195 
	C3046.718750,632.269836 3046.718750,685.993774 3046.718750,739.387695 
	C3058.223877,739.387695 3069.038574,739.387695 3080.497070,739.387695 
	C3080.497070,715.132812 3080.497070,691.594543 3080.497070,667.831116 
	C3101.708252,667.831116 3122.230713,667.831116 3143.730957,667.831116 
	C3143.730957,682.505005 3143.730957,696.749084 3143.730957,712.987793 
M2739.677246,591.026367 
	C2739.677246,586.792664 2739.677246,582.558899 2739.677246,578.338501 
	C2699.132324,578.338501 2659.709717,578.338501 2620.464600,578.338501 
	C2620.464600,632.561218 2620.464600,686.048523 2620.464600,739.669678 
	C2661.576416,739.669678 2702.098633,739.669678 2742.799805,739.669678 
	C2742.799805,730.150085 2742.799805,721.085510 2742.799805,711.319214 
	C2712.830811,711.319214 2683.595703,711.319214 2653.829102,711.319214 
	C2653.829102,697.142456 2653.829102,683.689575 2653.829102,669.251099 
	C2680.061523,669.251099 2705.885254,669.251099 2731.701416,669.251099 
	C2731.701416,659.117676 2731.701416,649.983215 2731.701416,639.932983 
	C2705.227539,639.932983 2679.401123,639.932983 2654.028076,639.932983 
	C2654.028076,628.194946 2654.028076,617.408264 2654.028076,605.725220 
	C2682.910156,605.725220 2711.053223,605.725220 2739.677979,605.725220 
	C2739.677979,600.852356 2739.677979,596.898315 2739.677246,591.026367 
M3461.695068,691.368591 
	C3473.164795,707.673828 3484.634521,723.979004 3495.578857,739.537476 
	C3510.474121,739.537476 3524.266113,739.537476 3539.336914,739.537476 
	C3515.734375,707.226990 3492.853760,675.905090 3469.593994,644.063599 
	C3491.335449,622.248352 3512.751221,600.759888 3535.823486,577.609436 
	C3521.957764,577.609436 3510.713867,577.886780 3499.493896,577.490662 
	C3494.012207,577.297119 3490.224121,579.044617 3486.541260,583.059814 
	C3470.783936,600.239502 3454.742676,617.159180 3438.778076,634.148071 
	C3436.386719,636.692993 3433.849365,639.100342 3429.631348,643.320312 
	C3429.631348,619.973511 3429.631348,598.952881 3429.631348,578.066833 
	C3417.873047,578.066833 3407.321533,578.066833 3396.523193,578.066833 
	C3396.523193,632.231628 3396.523193,685.935852 3396.523193,739.395874 
	C3407.971924,739.395874 3418.763184,739.395874 3429.899902,739.395874 
	C3429.899902,723.060181 3429.815674,707.435608 3429.976562,691.813477 
	C3430.005859,688.980164 3430.177734,685.470276 3431.777832,683.464294 
	C3435.805420,678.414612 3440.686523,674.045410 3445.777344,668.838867 
	C3451.300049,676.687866 3456.062012,683.455200 3461.695068,691.368591 
M2183.335693,699.323364 
	C2186.847900,720.522644 2199.419678,733.978333 2219.491211,740.342041 
	C2239.439453,746.666687 2259.616211,746.108459 2279.315430,739.278259 
	C2295.098633,733.805847 2305.788086,722.648865 2309.994385,706.366943 
	C2312.053467,698.397888 2313.217285,689.986389 2313.312012,681.758240 
	C2313.682861,649.465088 2313.480225,617.165222 2313.438965,584.867920 
	C2313.436035,582.631348 2313.010010,580.395325 2312.728516,577.647339 
	C2301.134277,577.638000 2290.028809,577.423706 2278.492676,577.782471 
	C2278.492676,582.507996 2278.492676,585.804565 2278.492676,589.101135 
	C2278.492432,619.400696 2278.515381,649.700378 2278.465576,679.999817 
	C2278.458496,684.320618 2278.470947,688.697327 2277.827148,692.950134 
	C2276.306396,702.995544 2270.651611,710.081238 2261.051758,713.460815 
	C2253.732666,716.037354 2246.163818,716.562378 2238.440918,714.726685 
	C2226.763428,711.950745 2219.945557,704.636780 2217.944336,693.008606 
	C2217.046631,687.793701 2216.768555,682.419006 2216.749268,677.114868 
	C2216.640869,647.481567 2216.697510,617.847778 2216.697510,588.214111 
	C2216.697510,584.930664 2216.697266,581.647278 2216.697266,578.276794 
	C2204.773682,578.276794 2193.663330,578.276794 2182.003418,578.276794 
	C2182.003418,580.569641 2182.003174,582.185730 2182.003418,583.801880 
	C2182.008545,617.764038 2181.984131,651.726257 2182.058350,685.688293 
	C2182.067139,689.664978 2182.619385,693.640503 2183.335693,699.323364 
M3750.392334,647.000183 
	C3750.392334,624.116028 3750.392334,601.231812 3750.392334,578.036804 
	C3738.564209,578.036804 3727.736816,578.036804 3715.940186,578.036804 
	C3715.940186,581.656433 3715.940430,584.904297 3715.939941,588.152161 
	C3715.936279,620.140686 3715.941162,652.129150 3715.923340,684.117676 
	C3715.917725,694.146240 3714.037598,703.676453 3705.182129,709.716614 
	C3694.186035,717.216614 3682.016846,717.872864 3669.932373,712.782410 
	C3658.328857,707.894653 3654.871338,697.569763 3654.123535,685.985718 
	C3653.930908,682.998169 3654.040527,679.990051 3654.040039,676.991333 
	C3654.035400,647.002075 3654.049072,617.012878 3654.018066,587.023621 
	C3654.015137,584.124695 3653.748535,581.226013 3653.604736,578.335571 
	C3641.874268,578.335571 3630.777100,578.335571 3619.428955,578.335571 
	C3619.428955,592.376892 3619.405762,605.695862 3619.434326,619.014709 
	C3619.485840,643.004761 3619.059814,667.010071 3619.776367,690.980774 
	C3620.541260,716.552185 3634.047363,733.803650 3658.281006,740.871704 
	C3677.646484,746.519897 3697.222656,745.949524 3716.284912,739.394470 
	C3732.901855,733.680176 3743.518066,721.736938 3747.811279,704.722595 
	C3749.422363,698.336304 3750.041504,691.592346 3750.253906,684.983826 
	C3750.639648,673.000244 3750.381592,660.995911 3750.392334,647.000183 
M4590.714844,621.589905 
	C4577.036133,660.900940 4562.416992,699.890869 4548.944336,739.698486 
	C4561.583008,739.698486 4572.816406,739.698486 4584.373535,739.698486 
	C4588.265625,728.533936 4592.069336,717.624023 4595.817383,706.874023 
	C4616.145508,706.874023 4635.725098,706.874023 4655.600098,706.874023 
	C4659.234375,718.093262 4662.787109,729.060059 4666.238281,739.714233 
	C4678.707031,739.714233 4690.269531,739.714233 4702.974121,739.714233 
	C4683.766113,685.220398 4664.810547,631.442139 4645.939453,577.904724 
	C4632.197754,577.904724 4619.579590,577.904724 4606.359375,577.904724 
	C4601.352051,592.039978 4596.370605,606.102966 4590.714844,621.589905 
M5044.712891,607.571289 
	C5029.106934,651.474915 5013.500977,695.378540 4997.706543,739.811279 
	C5010.485840,739.811279 5021.768066,739.811279 5033.358887,739.811279 
	C5037.191895,728.737427 5040.968262,717.828674 5044.656250,707.173401 
	C5065.150879,707.173401 5084.973633,707.173401 5104.805664,707.173401 
	C5108.383301,718.456726 5111.769043,729.133484 5115.081543,739.579041 
	C5127.630859,739.579041 5139.419434,739.579041 5151.932129,739.579041 
	C5132.819824,685.340637 5113.956055,631.807434 5095.095703,578.283569 
	C5081.445801,578.283569 5068.298340,578.283569 5055.177734,578.283569 
	C5051.767090,587.976685 5048.570801,597.062073 5044.712891,607.571289 
M2408.045898,708.993164 
	C2408.045898,719.180542 2408.045898,729.367920 2408.045898,739.495972 
	C2420.004883,739.495972 2430.797607,739.495972 2442.349365,739.495972 
	C2442.349365,720.067871 2442.349365,701.243958 2442.349365,681.664612 
	C2455.353027,681.664612 2467.597412,681.718628 2479.841309,681.647156 
	C2489.241943,681.592285 2498.420410,680.223206 2506.902344,675.895508 
	C2539.133545,659.449951 2542.186279,605.447998 2512.009277,585.508911 
	C2503.419678,579.833313 2493.819580,577.634094 2483.608154,577.642944 
	C2460.313477,577.663025 2437.018799,577.619202 2413.724121,577.629700 
	C2412.135986,577.630432 2410.548096,577.866455 2408.045898,578.065918 
	C2408.045898,621.330505 2408.045898,664.163391 2408.045898,708.993164 
z"/>
<path fill="#010101" opacity="1.000000" stroke="none" 
	d="
M857.678345,1231.966553 
	C857.678345,1240.615967 857.678345,1248.271729 857.678345,1255.810547 
	C850.297119,1258.041992 609.454956,1258.981934 586.818970,1256.866455 
	C586.818970,1244.569458 586.818970,1232.097656 586.818970,1219.094849 
	C572.163452,1221.000610 558.768677,1223.129150 545.292786,1224.395264 
	C529.051208,1225.921265 512.742676,1227.647339 496.459808,1227.680054 
	C350.470367,1227.973633 204.480209,1227.913452 58.490250,1227.957275 
	C56.553566,1227.957886 54.616882,1227.957397 52.111229,1227.957397 
	C52.111229,850.818298 52.111229,474.352844 52.111229,96.820839 
	C55.487011,96.820839 58.737217,96.820793 61.987423,96.820854 
	C173.979874,96.822906 285.972382,96.758865 397.964722,96.857376 
	C447.420807,96.900879 496.474457,100.861931 544.425537,113.866966 
	C555.966553,116.997063 567.292725,120.919319 578.716797,124.480232 
	C580.882141,125.155174 583.043091,125.844162 586.116821,126.814072 
	C586.116821,107.584427 586.116821,89.073158 586.116821,70.817390 
	C593.689270,68.387672 846.625916,67.906296 857.894165,70.252235 
	C857.894165,230.452744 857.894165,390.850708 857.894165,553.371033 
	C860.813354,550.102783 862.308716,548.515564 863.709045,546.848511 
	C994.027649,391.712616 1124.343628,236.574432 1254.642212,81.421776 
	C1265.179443,68.874649 1265.122925,68.827354 1281.166138,68.827431 
	C1380.826050,68.827904 1480.486084,68.828300 1580.145996,68.828728 
	C1583.752197,68.828743 1587.358521,68.828735 1590.557861,68.828735 
	C1591.165894,69.599838 1591.465332,69.834526 1591.551636,70.131180 
	C1591.633423,70.412628 1591.570435,70.799049 1591.432617,71.068428 
	C1591.138306,71.643852 1590.814453,72.224548 1590.398315,72.714478 
	C1432.277100,258.872498 1274.147095,445.023010 1115.375366,631.929199 
	C1299.311401,839.881775 1483.148804,1047.722534 1667.173462,1255.775269 
	C1659.841553,1257.994995 1375.155029,1258.801514 1356.483032,1256.721313 
	C1356.340698,1251.712769 1356.253906,1246.496948 1356.034668,1241.286743 
	C1354.369141,1201.684692 1344.338501,1164.389648 1324.305176,1130.102417 
	C1306.626587,1099.845459 1283.234497,1075.149414 1251.176270,1059.870850 
	C1212.474121,1041.426025 1173.468384,1041.446167 1134.470947,1059.256592 
	C1132.076416,1060.350342 1129.670288,1061.418579 1126.537476,1062.828125 
	C1037.494019,960.253601 948.478760,857.711731 859.463562,755.169861 
	C858.868469,755.327637 858.273438,755.485352 857.678345,755.643127 
	C857.678345,914.086426 857.678345,1072.529663 857.678345,1231.966553 
M438.508881,764.126831 
	C395.687347,760.022034 352.798126,762.498108 309.701599,761.705444 
	C309.701599,851.302307 309.701599,939.799255 309.701599,1028.314087 
	C311.082153,1028.702026 312.020050,1029.200439 312.954926,1029.194824 
	C357.582306,1028.929321 402.301575,1031.150024 446.758423,1025.690552 
	C470.934509,1022.721741 494.542175,1017.062012 516.588867,1006.183533 
	C550.554871,989.423828 571.896667,962.980591 577.465881,925.080383 
	C581.091187,900.408936 579.387817,875.929016 572.276550,851.906738 
	C563.583862,822.542358 545.362244,800.984375 518.493896,786.759216 
	C510.594482,782.576843 502.188538,779.252930 493.796692,776.119507 
	C476.548401,769.679199 458.434235,766.899963 438.508881,764.126831 
M438.819153,314.011566 
	C397.396912,296.123993 353.718018,295.330170 309.946320,295.920197 
	C309.946320,377.703369 309.946320,458.436371 309.946320,539.607849 
	C322.611328,539.607849 334.572693,540.036621 346.492889,539.518433 
	C371.141205,538.447021 395.556213,535.560852 419.267090,528.231750 
	C433.665131,523.781250 447.282288,517.699463 459.440186,508.736633 
	C476.932129,495.841522 488.326569,478.621857 494.512268,457.890350 
	C501.091614,435.839569 502.493073,413.243927 499.291290,390.649841 
	C494.142090,354.313690 473.066071,329.731323 438.819153,314.011566 
z"/>
<path fill="#030202" opacity="1.000000" stroke="none" 
	d="
M1134.858887,1188.923340 
	C1137.553345,1185.917847 1139.651733,1183.315918 1142.046753,1181.024048 
	C1163.557007,1160.440186 1193.012329,1160.525391 1214.403198,1181.311646 
	C1227.735352,1194.267090 1235.070435,1210.427368 1238.751343,1228.397583 
	C1244.280273,1255.389038 1241.595215,1281.382202 1228.125610,1305.667236 
	C1224.464233,1312.268433 1219.774048,1318.575317 1214.466064,1323.938354 
	C1193.185547,1345.439575 1163.058472,1345.344604 1141.592163,1324.043945 
	C1128.173828,1310.729370 1120.409668,1294.317383 1117.135254,1275.926636 
	C1111.619751,1244.948120 1115.586426,1215.680054 1134.858887,1188.923340 
z"/>
<path fill="#060606" opacity="1.000000" stroke="none" 
	d="
M4374.311035,625.986877 
	C4369.548340,648.786133 4364.755859,671.579285 4360.034180,694.386902 
	C4356.940918,709.329346 4353.951172,724.292908 4350.838867,739.624390 
	C4340.175293,739.624390 4329.967285,739.624390 4318.910156,739.624390 
	C4303.781738,686.156921 4288.605957,632.520813 4273.219238,578.141357 
	C4285.635742,578.141357 4297.139648,578.141357 4309.385742,578.141357 
	C4317.815430,616.002258 4326.233398,653.811829 4334.651855,691.621338 
	C4335.154297,691.656311 4335.656738,691.691345 4336.159180,691.726318 
	C4343.471680,653.963318 4350.784180,616.200317 4358.169434,578.062134 
	C4370.091797,578.062134 4381.671387,578.062134 4394.335938,578.062134 
	C4402.276855,616.222656 4410.249023,654.535339 4418.683105,695.069885 
	C4427.861328,654.713074 4436.545898,616.527222 4445.294922,578.056274 
	C4456.834961,578.056274 4467.717285,578.056274 4479.820312,578.056274 
	C4464.611816,632.123596 4449.539551,685.707825 4434.370605,739.633362 
	C4423.416016,739.633362 4412.876465,739.633362 4401.504883,739.633362 
	C4393.788574,701.747070 4386.028809,663.650574 4378.117188,624.126587 
	C4377.654297,620.645325 4377.344238,618.591675 4377.034668,616.538025 
	C4376.454102,616.556335 4375.873535,616.574585 4375.292969,616.592896 
	C4374.965332,619.724182 4374.638184,622.855530 4374.311035,625.986877 
z"/>
<path fill="#040303" opacity="1.000000" stroke="none" 
	d="
M1766.004028,577.614014 
	C1782.978638,577.627441 1798.973022,577.193604 1814.922852,577.845032 
	C1822.765381,578.165283 1830.973022,579.334534 1838.239746,582.133484 
	C1860.170044,590.580383 1870.002075,617.269958 1858.876709,637.842163 
	C1855.852051,643.434998 1850.430664,647.731689 1845.875488,652.888123 
	C1845.801758,652.747986 1845.930420,653.474792 1846.320190,653.663818 
	C1865.547485,662.992920 1870.265137,681.291260 1867.502319,699.993103 
	C1864.726196,718.785156 1849.493652,734.296814 1831.043823,737.833252 
	C1824.542358,739.079529 1817.853149,739.844421 1811.239380,739.919067 
	C1787.278320,740.189392 1763.312866,740.078918 1739.349121,740.090454 
	C1737.769775,740.091248 1736.190552,739.910522 1734.270264,739.793396 
	C1734.270264,685.730591 1734.270264,632.290833 1734.270264,577.614014 
	C1744.639282,577.614014 1754.822266,577.614014 1766.004028,577.614014 
M1792.980103,712.042419 
	C1801.247803,711.687073 1809.694702,712.277588 1817.740479,710.751648 
	C1829.400024,708.540283 1834.447632,700.673462 1834.140869,688.156372 
	C1833.891235,677.963257 1828.296875,671.654785 1817.117065,669.351318 
	C1813.896240,668.687744 1810.542236,668.449768 1807.245361,668.416809 
	C1795.954956,668.304016 1784.662598,668.325989 1773.371582,668.403625 
	C1771.175903,668.418701 1768.983276,668.914246 1766.822510,669.184021 
	C1766.822510,683.615295 1766.822510,697.421936 1766.822510,711.020630 
	C1767.916992,711.457642 1768.502197,711.889832 1769.092407,711.896667 
	C1776.395142,711.981201 1783.698608,712.003845 1792.980103,712.042419 
M1827.004883,633.528198 
	C1833.811523,619.497375 1829.463379,607.651123 1815.606934,606.514160 
	C1799.559204,605.197388 1783.320557,606.207642 1766.739746,606.207642 
	C1766.739746,617.782715 1766.739746,628.921265 1766.739746,641.343750 
	C1783.236938,640.766296 1799.417480,642.597351 1815.496826,639.949097 
	C1819.171509,639.343872 1822.479614,636.512817 1827.004883,633.528198 
z"/>
<path fill="#050606" opacity="1.000000" stroke="none" 
	d="
M4155.742188,668.284729 
	C4134.798828,667.588806 4114.580566,667.588806 4093.613770,667.588806 
	C4093.613770,691.803955 4093.613770,715.322510 4093.613770,739.471924 
	C4082.062012,739.471924 4071.239746,739.471924 4059.944824,739.471924 
	C4059.944824,686.058350 4059.944824,632.526611 4059.944824,578.296875 
	C4070.724854,578.296875 4081.500732,578.296875 4093.195312,578.296875 
	C4093.195312,598.021484 4093.195312,617.870117 4093.195312,638.436890 
	C4114.505371,638.436890 4134.932617,638.436890 4156.358887,638.436890 
	C4156.358887,618.788330 4156.358887,598.953552 4156.358887,578.507935 
	C4168.056152,576.743896 4178.863281,578.012573 4190.191406,577.515076 
	C4190.191406,631.742126 4190.191406,685.245361 4190.191406,739.433228 
	C4179.494629,739.433228 4168.712402,739.433228 4156.466309,739.433228 
	C4156.466309,716.084290 4156.466309,692.532471 4155.742188,668.284729 
z"/>
<path fill="#070606" opacity="1.000000" stroke="none" 
	d="
M3905.996094,744.316162 
	C3894.538818,742.805786 3883.694580,742.498230 3873.624512,739.547241 
	C3849.580566,732.501465 3836.621338,710.245300 3838.491699,690.507935 
	C3848.657959,690.507935 3858.886230,690.507935 3869.329346,690.507935 
	C3869.537354,690.762573 3870.162842,691.197937 3870.312012,691.759705 
	C3874.698242,708.314636 3882.885498,715.421265 3899.757324,715.921692 
	C3907.318604,716.145996 3914.989258,715.179443 3922.486084,713.978394 
	C3925.919189,713.428406 3929.316406,711.391785 3932.271484,709.361572 
	C3940.668701,703.591980 3942.354980,686.440308 3929.416260,681.453674 
	C3921.706055,678.482178 3913.631104,676.408386 3905.639160,674.226990 
	C3893.791260,670.993225 3881.755127,668.406860 3870.009521,664.849915 
	C3851.847168,659.349731 3841.500244,647.019958 3840.400635,627.822632 
	C3839.236816,607.507874 3846.544922,591.240540 3864.882568,581.237549 
	C3870.042480,578.422913 3875.922852,576.522095 3881.705566,575.336365 
	C3896.876465,572.225586 3912.191650,572.181396 3927.223145,576.189880 
	C3950.391113,582.368225 3966.089844,602.385925 3965.748779,625.263916 
	C3955.581299,625.263916 3945.374756,625.263916 3934.917236,625.263916 
	C3934.743652,625.069275 3934.073486,624.661255 3933.948975,624.126526 
	C3931.608398,614.049561 3926.563721,606.234436 3915.962646,603.526245 
	C3903.753906,600.407532 3891.550537,599.651062 3880.214355,606.503723 
	C3874.353760,610.046448 3871.486816,615.577942 3872.237305,622.562378 
	C3872.997314,629.637573 3877.088623,634.244507 3883.811768,636.029785 
	C3899.227783,640.123474 3914.793457,643.665344 3930.164307,647.914490 
	C3937.479736,649.936890 3944.749268,652.524841 3951.577881,655.814697 
	C3962.116211,660.891479 3968.423096,669.699951 3970.472900,681.252686 
	C3975.976562,712.271667 3960.634521,734.047546 3929.695557,741.765564 
	C3922.361328,743.595215 3914.551758,743.517517 3905.996094,744.316162 
z"/>
<path fill="#060505" opacity="1.000000" stroke="none" 
	d="
M2838.113281,592.236450 
	C2846.625000,582.586182 2856.847168,577.449158 2868.661133,575.249207 
	C2883.916748,572.408325 2899.191895,572.249756 2914.233398,576.207825 
	C2937.168213,582.242920 2952.145752,601.281433 2952.982422,625.288391 
	C2942.448242,625.288391 2931.922607,625.288391 2920.920654,625.288391 
	C2919.277588,615.492310 2914.907959,607.404358 2905.035889,604.184082 
	C2893.012939,600.262146 2880.831055,599.738342 2869.080322,605.437744 
	C2862.063232,608.841248 2858.781006,614.596252 2859.429443,622.478577 
	C2860.064209,630.196533 2864.624268,634.487976 2871.746826,636.317505 
	C2887.208984,640.289307 2902.780518,643.858093 2918.155518,648.136963 
	C2925.469482,650.172424 2932.763672,652.825317 2939.487305,656.314941 
	C2950.983887,662.281616 2956.896729,672.480591 2958.127930,685.261047 
	C2960.783203,712.825012 2948.664062,731.721252 2922.198975,740.112183 
	C2900.931396,746.855225 2879.468994,746.076355 2858.411133,738.831238 
	C2836.902588,731.431091 2824.269287,711.286438 2825.300781,689.990051 
	C2830.349121,689.990051 2835.513916,689.990051 2840.678467,689.990051 
	C2845.983398,689.990051 2851.288086,689.990051 2857.335693,689.990051 
	C2858.010010,697.771484 2860.394775,704.508240 2866.578857,709.190918 
	C2873.527344,714.452332 2881.541016,716.462646 2890.058594,716.092590 
	C2896.669189,715.805420 2903.310547,715.135986 2909.815430,713.958496 
	C2912.957520,713.389771 2916.132080,711.689331 2918.749512,709.763977 
	C2929.429443,701.908264 2928.153564,686.955444 2916.187988,681.309509 
	C2911.128662,678.922363 2905.565186,677.483643 2900.110840,676.079712 
	C2889.161377,673.261597 2878.034424,671.100159 2867.166504,668.012695 
	C2860.180908,666.028198 2853.329102,663.290222 2846.769775,660.153137 
	C2836.041504,655.022095 2830.152344,645.798828 2828.356689,634.360596 
	C2826.013184,619.429504 2827.541748,605.080078 2838.113281,592.236450 
z"/>
<path fill="#040505" opacity="1.000000" stroke="none" 
	d="
M4899.987793,577.605835 
	C4905.592773,577.605896 4910.217773,577.605896 4915.454102,577.605896 
	C4915.454102,631.643005 4915.454102,685.142273 4915.454102,739.377258 
	C4905.044922,739.377258 4894.231934,739.377258 4882.335938,739.377258 
	C4882.335938,715.996338 4882.335938,692.222656 4882.335938,667.927002 
	C4860.763672,667.927002 4840.252930,667.927002 4818.697266,667.927002 
	C4818.697266,691.706665 4818.697266,715.483337 4818.697266,739.625732 
	C4806.854004,739.625732 4796.053711,739.625732 4784.843750,739.625732 
	C4784.843750,685.657593 4784.843750,632.176514 4784.843750,578.148438 
	C4795.800293,578.148438 4806.346191,578.148438 4818.362305,578.148438 
	C4818.381348,587.923889 4818.409668,598.090881 4818.419922,608.257874 
	C4818.429688,618.193542 4818.421387,628.129272 4818.421387,638.603882 
	C4839.852051,638.603882 4860.391602,638.603882 4881.741211,638.603882 
	C4881.741211,618.797119 4881.741211,598.924316 4881.741211,577.605713 
	C4887.995117,577.605713 4893.501465,577.605713 4899.987793,577.605835 
z"/>
<path fill="#050505" opacity="1.000000" stroke="none" 
	d="
M1989.903931,594.104553 
	C1989.903931,609.362671 1989.903931,623.637329 1989.903931,638.535156 
	C2011.030762,638.535156 2031.479004,638.535156 2053.124512,638.535156 
	C2053.898193,628.728577 2053.388184,618.866577 2053.479736,609.044067 
	C2053.572510,599.059265 2053.500244,589.072998 2053.500244,578.345947 
	C2064.511475,578.345947 2075.312744,578.345947 2086.817871,578.345947 
	C2086.817871,631.592590 2086.817871,685.050171 2086.817871,740.010071 
	C2076.444580,740.214722 2065.668213,740.101379 2053.767090,740.042114 
	C2053.767090,716.028687 2053.767090,692.288147 2053.767090,667.977539 
	C2032.160645,667.977539 2011.655762,667.977539 1990.109619,667.977539 
	C1990.109619,691.613770 1990.109619,715.397827 1990.109619,739.635986 
	C1978.282227,739.635986 1967.489746,739.635986 1956.285889,739.635986 
	C1956.285889,685.717468 1956.285889,632.243835 1956.285889,578.186951 
	C1967.330933,578.186951 1978.108887,578.186951 1989.903931,578.186951 
	C1989.903931,583.310303 1989.903931,588.215698 1989.903931,594.104553 
z"/>
<path fill="#040505" opacity="1.000000" stroke="none" 
	d="
M3143.730957,711.990479 
	C3143.730957,696.749084 3143.730957,682.505005 3143.730957,667.831116 
	C3122.230713,667.831116 3101.708252,667.831116 3080.497070,667.831116 
	C3080.497070,691.594543 3080.497070,715.132812 3080.497070,739.387695 
	C3069.038574,739.387695 3058.223877,739.387695 3046.718750,739.387695 
	C3046.718750,685.993774 3046.718750,632.269836 3046.718750,578.075195 
	C3057.513672,578.075195 3068.073486,578.075195 3079.824219,578.075195 
	C3079.824219,598.007690 3079.824219,618.132080 3079.824219,638.701172 
	C3101.539307,638.701172 3122.072998,638.701172 3143.430420,638.701172 
	C3143.430420,618.590942 3143.430420,598.728088 3143.430420,578.242004 
	C3155.026367,578.242004 3165.812256,578.242004 3177.168457,578.242004 
	C3177.168457,631.806396 3177.168457,685.294006 3177.168457,739.447449 
	C3166.447754,739.447449 3155.664062,739.447449 3143.730957,739.447449 
	C3143.730957,730.720825 3143.730957,721.854309 3143.730957,711.990479 
z"/>
<path fill="#050505" opacity="1.000000" stroke="none" 
	d="
M2739.677734,591.985352 
	C2739.677979,596.898315 2739.677979,600.852356 2739.677979,605.725220 
	C2711.053223,605.725220 2682.910156,605.725220 2654.028076,605.725220 
	C2654.028076,617.408264 2654.028076,628.194946 2654.028076,639.932983 
	C2679.401123,639.932983 2705.227539,639.932983 2731.701416,639.932983 
	C2731.701416,649.983215 2731.701416,659.117676 2731.701416,669.251099 
	C2705.885254,669.251099 2680.061523,669.251099 2653.829102,669.251099 
	C2653.829102,683.689575 2653.829102,697.142456 2653.829102,711.319214 
	C2683.595703,711.319214 2712.830811,711.319214 2742.799805,711.319214 
	C2742.799805,721.085510 2742.799805,730.150085 2742.799805,739.669678 
	C2702.098633,739.669678 2661.576416,739.669678 2620.464600,739.669678 
	C2620.464600,686.048523 2620.464600,632.561218 2620.464600,578.338501 
	C2659.709717,578.338501 2699.132324,578.338501 2739.677246,578.338501 
	C2739.677246,582.558899 2739.677246,586.792664 2739.677734,591.985352 
z"/>
<path fill="#050404" opacity="1.000000" stroke="none" 
	d="
M3461.259277,690.795532 
	C3456.062012,683.455200 3451.300049,676.687866 3445.777344,668.838867 
	C3440.686523,674.045410 3435.805420,678.414612 3431.777832,683.464294 
	C3430.177734,685.470276 3430.005859,688.980164 3429.976562,691.813477 
	C3429.815674,707.435608 3429.899902,723.060181 3429.899902,739.395874 
	C3418.763184,739.395874 3407.971924,739.395874 3396.523193,739.395874 
	C3396.523193,685.935852 3396.523193,632.231628 3396.523193,578.066833 
	C3407.321533,578.066833 3417.873047,578.066833 3429.631348,578.066833 
	C3429.631348,598.952881 3429.631348,619.973511 3429.631348,643.320312 
	C3433.849365,639.100342 3436.386719,636.692993 3438.778076,634.148071 
	C3454.742676,617.159180 3470.783936,600.239502 3486.541260,583.059814 
	C3490.224121,579.044617 3494.012207,577.297119 3499.493896,577.490662 
	C3510.713867,577.886780 3521.957764,577.609436 3535.823486,577.609436 
	C3512.751221,600.759888 3491.335449,622.248352 3469.593994,644.063599 
	C3492.853760,675.905090 3515.734375,707.226990 3539.336914,739.537476 
	C3524.266113,739.537476 3510.474121,739.537476 3495.578857,739.537476 
	C3484.634521,723.979004 3473.164795,707.673828 3461.259277,690.795532 
z"/>
<path fill="#060606" opacity="1.000000" stroke="none" 
	d="
M2183.127930,698.469971 
	C2182.619385,693.640503 2182.067139,689.664978 2182.058350,685.688293 
	C2181.984131,651.726257 2182.008545,617.764038 2182.003418,583.801880 
	C2182.003174,582.185730 2182.003418,580.569641 2182.003418,578.276794 
	C2193.663330,578.276794 2204.773682,578.276794 2216.697266,578.276794 
	C2216.697266,581.647278 2216.697510,584.930664 2216.697510,588.214111 
	C2216.697510,617.847778 2216.640869,647.481567 2216.749268,677.114868 
	C2216.768555,682.419006 2217.046631,687.793701 2217.944336,693.008606 
	C2219.945557,704.636780 2226.763428,711.950745 2238.440918,714.726685 
	C2246.163818,716.562378 2253.732666,716.037354 2261.051758,713.460815 
	C2270.651611,710.081238 2276.306396,702.995544 2277.827148,692.950134 
	C2278.470947,688.697327 2278.458496,684.320618 2278.465576,679.999817 
	C2278.515381,649.700378 2278.492432,619.400696 2278.492676,589.101135 
	C2278.492676,585.804565 2278.492676,582.507996 2278.492676,577.782471 
	C2290.028809,577.423706 2301.134277,577.638000 2312.728516,577.647339 
	C2313.010010,580.395325 2313.436035,582.631348 2313.438965,584.867920 
	C2313.480225,617.165222 2313.682861,649.465088 2313.312012,681.758240 
	C2313.217285,689.986389 2312.053467,698.397888 2309.994385,706.366943 
	C2305.788086,722.648865 2295.098633,733.805847 2279.315430,739.278259 
	C2259.616211,746.108459 2239.439453,746.666687 2219.491211,740.342041 
	C2199.419678,733.978333 2186.847900,720.522644 2183.127930,698.469971 
z"/>
<path fill="#030303" opacity="1.000000" stroke="none" 
	d="
M3750.392578,648.000244 
	C3750.381592,660.995911 3750.639648,673.000244 3750.253906,684.983826 
	C3750.041504,691.592346 3749.422363,698.336304 3747.811279,704.722595 
	C3743.518066,721.736938 3732.901855,733.680176 3716.284912,739.394470 
	C3697.222656,745.949524 3677.646484,746.519897 3658.281006,740.871704 
	C3634.047363,733.803650 3620.541260,716.552185 3619.776367,690.980774 
	C3619.059814,667.010071 3619.485840,643.004761 3619.434326,619.014709 
	C3619.405762,605.695862 3619.428955,592.376892 3619.428955,578.335571 
	C3630.777100,578.335571 3641.874268,578.335571 3653.604736,578.335571 
	C3653.748535,581.226013 3654.015137,584.124695 3654.018066,587.023621 
	C3654.049072,617.012878 3654.035400,647.002075 3654.040039,676.991333 
	C3654.040527,679.990051 3653.930908,682.998169 3654.123535,685.985718 
	C3654.871338,697.569763 3658.328857,707.894653 3669.932373,712.782410 
	C3682.016846,717.872864 3694.186035,717.216614 3705.182129,709.716614 
	C3714.037598,703.676453 3715.917725,694.146240 3715.923340,684.117676 
	C3715.941162,652.129150 3715.936279,620.140686 3715.939941,588.152161 
	C3715.940430,584.904297 3715.940186,581.656433 3715.940186,578.036804 
	C3727.736816,578.036804 3738.564209,578.036804 3750.392334,578.036804 
	C3750.392334,601.231812 3750.392334,624.116028 3750.392578,648.000244 
z"/>
<path fill="#050404" opacity="1.000000" stroke="none" 
	d="
M4591.051758,620.877930 
	C4596.370605,606.102966 4601.352051,592.039978 4606.359375,577.904724 
	C4619.579590,577.904724 4632.197754,577.904724 4645.939453,577.904724 
	C4664.810547,631.442139 4683.766113,685.220398 4702.974121,739.714233 
	C4690.269531,739.714233 4678.707031,739.714233 4666.238281,739.714233 
	C4662.787109,729.060059 4659.234375,718.093262 4655.600098,706.874023 
	C4635.725098,706.874023 4616.145508,706.874023 4595.817383,706.874023 
	C4592.069336,717.624023 4588.265625,728.533936 4584.373535,739.698486 
	C4572.816406,739.698486 4561.583008,739.698486 4548.944336,739.698486 
	C4562.416992,699.890869 4577.036133,660.900940 4591.051758,620.877930 
M4636.655273,648.195251 
	C4633.081543,637.596985 4630.764648,626.522461 4625.292480,614.646423 
	C4618.140625,636.938354 4611.676270,657.088684 4605.020020,677.835815 
	C4619.130371,677.835815 4632.206055,677.835815 4645.918945,677.835815 
	C4642.898438,667.994873 4640.085938,658.831360 4636.655273,648.195251 
z"/>
<path fill="#050404" opacity="1.000000" stroke="none" 
	d="
M5045.043457,606.859375 
	C5048.570801,597.062073 5051.767090,587.976685 5055.177734,578.283569 
	C5068.298340,578.283569 5081.445801,578.283569 5095.095703,578.283569 
	C5113.956055,631.807434 5132.819824,685.340637 5151.932129,739.579041 
	C5139.419434,739.579041 5127.630859,739.579041 5115.081543,739.579041 
	C5111.769043,729.133484 5108.383301,718.456726 5104.805664,707.173401 
	C5084.973633,707.173401 5065.150879,707.173401 5044.656250,707.173401 
	C5040.968262,717.828674 5037.191895,728.737427 5033.358887,739.811279 
	C5021.768066,739.811279 5010.485840,739.811279 4997.706543,739.811279 
	C5013.500977,695.378540 5029.106934,651.474915 5045.043457,606.859375 
M5085.987305,648.973328 
	C5082.488281,637.979614 5078.988770,626.985901 5075.489258,615.992249 
	C5074.953125,616.049988 5074.416992,616.107727 5073.880371,616.165466 
	C5067.284668,636.578430 5060.688477,656.991394 5053.973145,677.773682 
	C5067.875977,677.773682 5080.953613,677.773682 5094.970703,677.773682 
	C5091.930664,668.143555 5089.148926,659.333496 5085.987305,648.973328 
z"/>
<path fill="#040505" opacity="1.000000" stroke="none" 
	d="
M2408.045898,707.994690 
	C2408.045898,664.163391 2408.045898,621.330505 2408.045898,578.065918 
	C2410.548096,577.866455 2412.135986,577.630432 2413.724121,577.629700 
	C2437.018799,577.619202 2460.313477,577.663025 2483.608154,577.642944 
	C2493.819580,577.634094 2503.419678,579.833313 2512.009277,585.508911 
	C2542.186279,605.447998 2539.133545,659.449951 2506.902344,675.895508 
	C2498.420410,680.223206 2489.241943,681.592285 2479.841309,681.647156 
	C2467.597412,681.718628 2455.353027,681.664612 2442.349365,681.664612 
	C2442.349365,701.243958 2442.349365,720.067871 2442.349365,739.495972 
	C2430.797607,739.495972 2420.004883,739.495972 2408.045898,739.495972 
	C2408.045898,729.367920 2408.045898,719.180542 2408.045898,707.994690 
M2477.623779,653.343506 
	C2492.194824,650.351929 2496.916016,646.149963 2498.365479,634.444214 
	C2498.770752,631.173462 2498.718994,627.809814 2498.528809,624.508789 
	C2498.008301,615.468933 2493.223633,609.828003 2484.557861,607.227051 
	C2477.398926,605.078308 2450.290527,604.918579 2442.590820,607.135925 
	C2442.590820,622.366394 2442.590820,637.534729 2442.590820,652.445923 
	C2443.744141,652.939270 2444.330322,653.406128 2444.918945,653.409485 
	C2455.232910,653.468140 2465.546875,653.470154 2477.623779,653.343506 
z"/>
<path fill="#F5F7F7" opacity="1.000000" stroke="none" 
	d="
M4374.757324,625.785095 
	C4374.638184,622.855530 4374.965332,619.724182 4375.292969,616.592896 
	C4375.873535,616.574585 4376.454102,616.556335 4377.034668,616.538025 
	C4377.344238,618.591675 4377.654297,620.645325 4377.832520,623.370605 
	C4376.868164,624.555908 4376.036133,625.069641 4374.757324,625.785095 
z"/>
<path fill="#FEFEFE" opacity="1.000000" stroke="none" 
	d="
M439.409729,764.201782 
	C458.434235,766.899963 476.548401,769.679199 493.796692,776.119507 
	C502.188538,779.252930 510.594482,782.576843 518.493896,786.759216 
	C545.362244,800.984375 563.583862,822.542358 572.276550,851.906738 
	C579.387817,875.929016 581.091187,900.408936 577.465881,925.080383 
	C571.896667,962.980591 550.554871,989.423828 516.588867,1006.183533 
	C494.542175,1017.062012 470.934509,1022.721741 446.758423,1025.690552 
	C402.301575,1031.150024 357.582306,1028.929321 312.954926,1029.194824 
	C312.020050,1029.200439 311.082153,1028.702026 309.701599,1028.314087 
	C309.701599,939.799255 309.701599,851.302307 309.701599,761.705444 
	C352.798126,762.498108 395.687347,760.022034 439.409729,764.201782 
z"/>
<path fill="#FEFEFE" opacity="1.000000" stroke="none" 
	d="
M439.524658,314.296143 
	C473.066071,329.731323 494.142090,354.313690 499.291290,390.649841 
	C502.493073,413.243927 501.091614,435.839569 494.512268,457.890350 
	C488.326569,478.621857 476.932129,495.841522 459.440186,508.736633 
	C447.282288,517.699463 433.665131,523.781250 419.267090,528.231750 
	C395.556213,535.560852 371.141205,538.447021 346.492889,539.518433 
	C334.572693,540.036621 322.611328,539.607849 309.946320,539.607849 
	C309.946320,458.436371 309.946320,377.703369 309.946320,295.920197 
	C353.718018,295.330170 397.396912,296.123993 439.524658,314.296143 
z"/>
<path fill="#F7F9F9" opacity="1.000000" stroke="none" 
	d="
M1791.990967,712.042358 
	C1783.698608,712.003845 1776.395142,711.981201 1769.092407,711.896667 
	C1768.502197,711.889832 1767.916992,711.457642 1766.822510,711.020630 
	C1766.822510,697.421936 1766.822510,683.615295 1766.822510,669.184021 
	C1768.983276,668.914246 1771.175903,668.418701 1773.371582,668.403625 
	C1784.662598,668.325989 1795.954956,668.304016 1807.245361,668.416809 
	C1810.542236,668.449768 1813.896240,668.687744 1817.117065,669.351318 
	C1828.296875,671.654785 1833.891235,677.963257 1834.140869,688.156372 
	C1834.447632,700.673462 1829.400024,708.540283 1817.740479,710.751648 
	C1809.694702,712.277588 1801.247803,711.687073 1791.990967,712.042358 
z"/>
<path fill="#F5F7F7" opacity="1.000000" stroke="none" 
	d="
M1826.480713,634.117188 
	C1822.479614,636.512817 1819.171509,639.343872 1815.496826,639.949097 
	C1799.417480,642.597351 1783.236938,640.766296 1766.739746,641.343750 
	C1766.739746,628.921265 1766.739746,617.782715 1766.739746,606.207642 
	C1783.320557,606.207642 1799.559204,605.197388 1815.606934,606.514160 
	C1829.463379,607.651123 1833.811523,619.497375 1826.480713,634.117188 
z"/>
<path fill="#F5F7F7" opacity="1.000000" stroke="none" 
	d="
M4636.964355,648.931519 
	C4640.085938,658.831360 4642.898438,667.994873 4645.918945,677.835815 
	C4632.206055,677.835815 4619.130371,677.835815 4605.020020,677.835815 
	C4611.676270,657.088684 4618.140625,636.938354 4625.292480,614.646423 
	C4630.764648,626.522461 4633.081543,637.596985 4636.964355,648.931519 
z"/>
<path fill="#F5F7F7" opacity="1.000000" stroke="none" 
	d="
M5086.177734,649.748413 
	C5089.148926,659.333496 5091.930664,668.143555 5094.970703,677.773682 
	C5080.953613,677.773682 5067.875977,677.773682 5053.973145,677.773682 
	C5060.688477,656.991394 5067.284668,636.578430 5073.880371,616.165466 
	C5074.416992,616.107727 5074.953125,616.049988 5075.489258,615.992249 
	C5078.988770,626.985901 5082.488281,637.979614 5086.177734,649.748413 
z"/>
<path fill="#F7F9F9" opacity="1.000000" stroke="none" 
	d="
M2476.742432,653.413940 
	C2465.546875,653.470154 2455.232910,653.468140 2444.918945,653.409485 
	C2444.330322,653.406128 2443.744141,652.939270 2442.590820,652.445923 
	C2442.590820,637.534729 2442.590820,622.366394 2442.590820,607.135925 
	C2450.290527,604.918579 2477.398926,605.078308 2484.557861,607.227051 
	C2493.223633,609.828003 2498.008301,615.468933 2498.528809,624.508789 
	C2498.718994,627.809814 2498.770752,631.173462 2498.365479,634.444214 
	C2496.916016,646.149963 2492.194824,650.351929 2476.742432,653.413940 
z"/>
</svg>